<?xml version="1.0" standalone="no"?>
<!DOCTYPE svg PUBLIC "-//W3C//DTD SVG 20010904//EN"
 "http://www.w3.org/TR/2001/REC-SVG-20010904/DTD/svg10.dtd">
<svg version="1.0" xmlns="http://www.w3.org/2000/svg"
 width="3000.000000pt" height="3000.000000pt" viewBox="0 0 3000.000000 3000.000000"
 preserveAspectRatio="xMidYMid meet">
<metadata>
Created by potrace 1.11, written by Peter Selinger 2001-2013
</metadata>
<g transform="translate(0.000000,3000.000000) scale(0.100000,-0.100000)"
fill="#000000" stroke="none">
<path d="M15335 27041 c-2 -2 -61 -5 -132 -7 -124 -3 -288 -13 -327 -20 -11
-1 -52 -5 -92 -9 -40 -3 -90 -8 -111 -11 -21 -3 -65 -7 -98 -9 -33 -2 -93 -7
-135 -11 -41 -3 -111 -8 -155 -9 -77 -3 -160 -11 -217 -20 -16 -3 -39 -7 -52
-9 -14 -2 -29 -7 -34 -10 -18 -11 -118 -25 -292 -41 -36 -3 -90 -8 -120 -11
-30 -3 -68 -9 -84 -14 -15 -6 -32 -7 -37 -4 -5 3 -9 0 -9 -7 0 -7 -3 -9 -6 -6
-4 3 -16 1 -28 -6 -11 -6 -28 -13 -36 -14 -8 -1 -26 -4 -40 -7 -14 -4 -36 -8
-50 -11 -14 -3 -36 -7 -50 -10 -14 -3 -43 -8 -65 -10 -77 -9 -119 -17 -157
-31 -21 -7 -38 -11 -38 -7 0 3 -6 0 -13 -6 -8 -6 -17 -8 -20 -4 -4 3 -7 1 -7
-6 0 -7 -10 -11 -22 -10 -13 2 -28 0 -34 -3 -6 -4 -24 -9 -40 -12 -54 -9 -129
-18 -144 -19 -8 0 -21 -4 -27 -10 -7 -5 -13 -7 -13 -3 0 4 -13 0 -30 -9 -16
-8 -32 -15 -35 -15 -3 0 -19 -7 -35 -15 -17 -9 -30 -13 -30 -10 0 3 -8 1 -18
-4 -10 -5 -38 -13 -62 -16 -65 -11 -83 -14 -100 -18 -53 -13 -70 -20 -70 -28
0 -5 -3 -8 -7 -8 -5 1 -11 0 -15 -1 -5 -1 -11 -3 -15 -4 -5 -1 -25 -8 -46 -15
-21 -7 -44 -10 -51 -8 -8 3 -17 3 -20 -1 -4 -3 -12 -7 -19 -8 -7 -2 -25 -6
-41 -9 -16 -3 -49 -17 -73 -31 -24 -13 -49 -21 -55 -18 -7 4 -8 2 -4 -4 4 -7
0 -12 -11 -13 -17 0 -54 -7 -78 -13 -5 -2 -23 -6 -40 -10 -16 -5 -46 -15 -65
-24 -19 -9 -37 -17 -40 -17 -3 0 -20 -9 -37 -18 -18 -10 -36 -17 -40 -17 -5
-1 -26 -6 -48 -12 -50 -14 -65 -18 -87 -20 -10 -1 -18 -7 -18 -12 0 -5 -3 -7
-6 -3 -4 3 -13 -1 -21 -9 -8 -8 -19 -12 -24 -9 -5 4 -9 3 -9 -2 0 -11 -46 -31
-90 -39 -19 -4 -47 -13 -62 -21 -15 -7 -31 -13 -35 -13 -5 0 -15 -6 -24 -14
-16 -13 -45 -26 -62 -26 -4 0 -23 -6 -42 -14 -19 -8 -35 -13 -35 -10 0 2 -13
-2 -30 -11 -16 -8 -33 -16 -37 -17 -5 0 -12 -7 -18 -13 -5 -7 -39 -24 -75 -37
-36 -14 -74 -29 -85 -33 -11 -5 -23 -7 -27 -7 -5 1 -8 -3 -8 -8 0 -6 -7 -10
-15 -10 -8 0 -15 -5 -15 -11 0 -5 -4 -7 -10 -4 -5 3 -10 1 -10 -5 0 -7 -6 -10
-14 -7 -7 3 -19 0 -25 -6 -6 -6 -11 -8 -11 -4 0 4 -13 1 -30 -8 -16 -8 -32
-15 -35 -15 -3 0 -9 0 -14 0 -4 0 -24 -13 -42 -30 -19 -16 -40 -28 -46 -25 -7
2 -13 0 -13 -5 0 -4 -17 -14 -37 -21 -21 -6 -43 -15 -49 -20 -6 -5 -14 -6 -17
-2 -4 3 -7 1 -7 -5 0 -7 -7 -12 -15 -12 -8 0 -15 -4 -15 -8 0 -9 -70 -37 -82
-34 -5 1 -8 -3 -8 -9 0 -5 -4 -7 -10 -4 -5 3 -10 1 -10 -4 0 -6 -7 -11 -15
-11 -8 0 -23 -9 -32 -19 -9 -11 -20 -18 -25 -15 -4 3 -8 0 -8 -6 0 -6 -4 -9
-9 -6 -5 3 -14 -1 -21 -9 -7 -8 -16 -13 -20 -10 -4 3 -19 -4 -32 -15 -14 -11
-28 -16 -32 -13 -3 3 -6 1 -6 -6 0 -7 -4 -9 -10 -6 -5 3 -10 2 -10 -3 0 -6
-29 -23 -65 -38 -36 -16 -65 -32 -65 -37 0 -4 -4 -5 -10 -2 -5 3 -10 1 -10 -4
0 -6 -6 -11 -14 -11 -8 0 -22 -7 -30 -16 -9 -8 -16 -13 -16 -9 0 4 -7 -1 -16
-9 -8 -9 -22 -16 -30 -16 -8 0 -14 -4 -14 -9 0 -5 -13 -12 -30 -16 -16 -4 -30
-10 -30 -15 0 -5 -10 -12 -22 -16 -13 -4 -25 -10 -28 -13 -13 -17 -83 -51 -92
-45 -6 4 -8 2 -4 -4 3 -6 -3 -13 -14 -17 -11 -3 -20 -10 -20 -15 0 -5 -10 -12
-22 -16 -13 -3 -31 -13 -40 -22 -10 -8 -18 -12 -18 -9 0 4 -28 -12 -63 -35
-79 -54 -98 -66 -117 -75 -8 -4 -19 -12 -25 -19 -5 -7 -16 -14 -24 -16 -7 -2
-24 -13 -36 -25 -13 -12 -35 -25 -49 -29 -14 -3 -26 -10 -26 -15 0 -5 -7 -9
-15 -9 -9 0 -18 -7 -21 -15 -4 -8 -10 -12 -15 -9 -5 3 -9 1 -9 -4 0 -5 -13
-15 -30 -22 -16 -7 -27 -16 -24 -21 3 -5 0 -9 -6 -9 -6 0 -18 -7 -27 -15 -8
-8 -19 -12 -25 -9 -6 4 -8 2 -5 -3 4 -6 -11 -20 -34 -32 -22 -12 -50 -30 -61
-41 -12 -11 -28 -20 -35 -20 -7 0 -13 -4 -13 -10 0 -5 -7 -10 -15 -10 -8 0
-15 -5 -15 -12 0 -6 -3 -8 -7 -5 -3 4 -18 -6 -32 -21 -14 -16 -54 -47 -87 -70
-34 -23 -68 -47 -75 -54 -8 -7 -33 -26 -57 -41 -24 -16 -57 -42 -74 -58 -17
-16 -36 -29 -42 -29 -6 0 -20 -11 -30 -25 -10 -13 -22 -22 -27 -20 -4 3 -13
-4 -19 -15 -6 -11 -15 -18 -19 -16 -4 3 -21 -10 -37 -29 -16 -19 -33 -35 -37
-35 -4 0 -18 -10 -30 -23 -12 -13 -37 -32 -54 -42 -18 -11 -33 -23 -33 -28 0
-4 -4 -5 -10 -2 -5 3 -10 0 -10 -7 0 -8 -13 -21 -29 -31 -15 -9 -47 -36 -71
-59 -24 -24 -47 -42 -52 -40 -4 1 -8 -4 -8 -10 0 -14 -70 -64 -82 -60 -5 1 -8
-2 -8 -6 0 -16 -57 -72 -65 -64 -4 4 -5 2 -2 -5 4 -6 -11 -23 -38 -40 -25 -15
-45 -31 -45 -35 0 -5 -6 -8 -14 -8 -8 0 -27 -14 -43 -32 -44 -50 -188 -193
-215 -214 -14 -11 -30 -30 -37 -42 -7 -12 -16 -20 -22 -17 -5 4 -8 3 -7 -2 2
-4 0 -9 -4 -11 -16 -5 -178 -172 -178 -183 0 -5 -4 -7 -10 -4 -5 3 -10 -2 -10
-11 0 -10 -3 -15 -6 -12 -7 7 -124 -109 -124 -123 0 -6 -5 -7 -12 -3 -6 4 -8
3 -4 -4 6 -11 5 -13 -68 -77 -25 -22 -46 -44 -46 -48 0 -14 -77 -86 -85 -79
-3 4 -5 2 -3 -4 4 -15 -120 -166 -182 -222 -13 -12 -13 -13 0 -6 8 4 -2 -10
-22 -32 -82 -86 -106 -114 -100 -114 4 0 -2 -7 -13 -16 -11 -8 -20 -18 -20
-22 0 -6 -38 -52 -73 -88 -7 -8 -11 -14 -7 -14 4 0 -8 -15 -26 -32 -18 -18
-38 -31 -43 -30 -6 2 -8 0 -4 -4 4 -4 0 -13 -10 -21 -11 -10 -12 -12 -2 -8 13
6 13 5 0 -7 -8 -7 -22 -26 -30 -41 -8 -16 -22 -33 -32 -38 -10 -5 -18 -14 -18
-20 0 -6 -6 -16 -12 -23 -7 -8 -19 -23 -27 -34 -8 -12 -18 -19 -23 -16 -5 3
-8 2 -7 -3 5 -16 -24 -62 -35 -56 -6 3 -8 3 -4 -2 8 -9 -32 -71 -78 -119 -16
-17 -39 -60 -36 -68 1 -5 -2 -8 -8 -8 -5 0 -10 -5 -10 -11 0 -6 -15 -26 -34
-44 -19 -18 -32 -36 -29 -39 4 -3 1 -6 -6 -6 -7 0 -10 -4 -7 -8 3 -5 -4 -14
-14 -22 -10 -8 -17 -17 -14 -22 3 -4 0 -8 -6 -8 -6 0 -9 -4 -6 -9 3 -5 -1 -12
-10 -15 -9 -4 -14 -9 -11 -12 6 -6 -1 -16 -33 -52 -18 -21 -70 -100 -70 -107
0 -5 -25 -36 -47 -60 -7 -8 -13 -19 -13 -25 0 -6 -5 -8 -12 -4 -6 4 -8 3 -4
-4 3 -6 1 -16 -6 -24 -7 -7 -19 -25 -27 -40 -8 -15 -22 -36 -32 -47 -10 -10
-25 -35 -33 -55 -8 -20 -26 -47 -40 -60 -14 -12 -23 -26 -19 -29 3 -4 1 -7 -6
-7 -7 0 -10 -4 -6 -9 3 -5 1 -12 -5 -16 -6 -4 -8 -11 -5 -16 4 -5 1 -9 -5 -9
-6 0 -9 -4 -5 -9 3 -5 -2 -17 -11 -25 -8 -9 -12 -16 -8 -16 4 0 -7 -13 -24
-28 -18 -16 -29 -32 -25 -35 3 -4 1 -7 -6 -7 -7 0 -10 -3 -8 -7 7 -12 -29 -73
-38 -65 -5 4 -5 1 0 -7 4 -7 4 -16 -1 -20 -10 -7 -24 -31 -67 -111 -16 -30
-34 -59 -41 -65 -7 -5 -11 -16 -9 -22 3 -7 -2 -16 -11 -19 -9 -3 -14 -10 -11
-14 3 -5 1 -11 -5 -15 -5 -3 -10 -17 -10 -29 0 -13 -7 -29 -15 -36 -8 -7 -12
-16 -9 -21 3 -5 -2 -12 -10 -15 -9 -3 -16 -12 -16 -20 0 -8 -5 -14 -11 -14 -5
0 -8 -4 -4 -9 3 -5 -4 -16 -15 -24 -11 -7 -22 -24 -24 -38 -3 -13 -5 -24 -6
-24 -1 0 -3 -9 -5 -20 -2 -11 -9 -21 -15 -23 -5 -2 -8 -8 -4 -13 3 -5 0 -9 -6
-9 -6 0 -8 -4 -5 -10 3 -5 1 -10 -4 -10 -6 0 -10 -3 -10 -7 4 -18 -55 -132
-64 -126 -6 3 -7 2 -4 -4 4 -5 -2 -19 -12 -29 -9 -11 -16 -25 -13 -32 2 -6 -1
-12 -8 -12 -6 0 -9 -4 -6 -9 3 -5 -1 -14 -9 -21 -8 -7 -13 -16 -10 -20 3 -5 1
-11 -4 -15 -6 -3 -8 -12 -4 -20 3 -8 0 -15 -7 -15 -6 0 -9 -4 -5 -9 3 -6 -1
-13 -9 -18 -8 -4 -16 -12 -17 -18 -8 -36 -12 -45 -21 -45 -5 0 -6 -4 -3 -10 3
-5 1 -10 -4 -10 -6 0 -10 -3 -10 -7 1 -5 0 -11 -1 -15 -1 -5 -4 -12 -5 -18 -1
-5 -4 -12 -5 -15 -1 -3 -3 -8 -4 -12 -1 -5 -10 -25 -19 -47 -9 -21 -17 -41
-17 -43 0 -3 -8 -17 -19 -31 -10 -15 -24 -45 -30 -67 -7 -22 -15 -47 -18 -55
-4 -8 -7 -17 -8 -20 -10 -28 -19 -39 -29 -33 -6 3 -8 3 -4 -2 4 -4 3 -13 -2
-20 -5 -6 -11 -20 -13 -31 -2 -10 -7 -27 -12 -36 -4 -10 -13 -37 -20 -60 -7
-24 -18 -42 -25 -40 -6 1 -9 -2 -5 -7 3 -6 -2 -27 -11 -48 -10 -21 -18 -40
-18 -43 -1 -3 -7 -15 -14 -27 -7 -13 -11 -23 -8 -23 3 0 0 -15 -6 -32 -27 -87
-41 -117 -51 -111 -5 3 -7 1 -3 -5 3 -6 1 -23 -5 -39 -7 -15 -13 -32 -15 -38
-5 -17 -15 -59 -20 -85 -5 -24 -41 -90 -55 -100 -4 -3 -9 -23 -12 -45 -2 -22
-7 -51 -11 -65 -3 -14 -8 -35 -10 -48 -3 -12 -8 -27 -11 -32 -3 -5 -8 -20 -10
-32 -3 -13 -9 -24 -15 -26 -6 -2 -8 -8 -4 -13 3 -5 0 -9 -6 -9 -6 0 -9 -4 -5
-9 3 -5 1 -12 -5 -16 -5 -3 -10 -15 -10 -26 0 -10 -3 -19 -7 -19 -5 0 -9 -19
-11 -43 -2 -23 -5 -51 -6 -62 -2 -11 -4 -29 -5 -40 0 -11 -11 -36 -23 -55 -12
-19 -23 -39 -24 -45 -1 -5 -9 -28 -16 -50 -8 -22 -13 -50 -12 -62 1 -13 -3
-23 -8 -23 -5 0 -6 -5 -3 -10 7 -11 -12 -105 -24 -125 -3 -5 -6 -12 -6 -15 -3
-19 -18 -50 -25 -50 -4 0 -7 -8 -6 -17 2 -10 -1 -34 -7 -53 -5 -19 -10 -44
-12 -55 -1 -11 -6 -42 -11 -70 -4 -27 -7 -54 -6 -58 1 -4 -5 -21 -13 -37 -9
-17 -13 -30 -11 -30 3 0 -1 -15 -9 -33 -7 -18 -16 -52 -20 -77 -4 -25 -9 -48
-12 -53 -3 -5 -7 -30 -9 -55 -3 -26 -7 -58 -10 -72 -3 -14 -8 -52 -10 -84 -3
-32 -8 -64 -12 -70 -3 -6 -5 -19 -4 -28 2 -10 -2 -18 -8 -18 -6 0 -8 -4 -5
-10 3 -5 3 -10 -2 -10 -4 0 -9 -16 -10 -36 -1 -20 -5 -44 -9 -53 -4 -9 -8 -29
-11 -46 -4 -33 -11 -70 -13 -70 0 0 -3 -34 -5 -75 -2 -41 -7 -100 -11 -130 -3
-30 -8 -75 -10 -100 -2 -25 -8 -46 -12 -48 -5 -1 -7 -14 -4 -27 2 -15 0 -25
-7 -25 -7 0 -10 -3 -7 -8 2 -4 1 -28 -4 -52 -22 -120 -32 -245 -45 -540 -4
-74 -8 -148 -10 -165 -14 -113 -23 -1053 -11 -1235 3 -41 8 -133 11 -205 3
-71 8 -159 11 -195 2 -36 7 -103 9 -150 9 -155 13 -199 18 -207 6 -9 18 -103
21 -150 0 -18 4 -33 8 -33 4 0 7 -8 7 -17 1 -25 9 -98 11 -98 5 0 17 -110 34
-305 2 -30 9 -67 15 -83 6 -15 8 -27 5 -27 -4 0 -1 -7 6 -15 7 -8 10 -21 7
-29 -3 -7 -2 -17 3 -22 5 -5 10 -25 11 -44 2 -19 5 -39 8 -45 7 -13 9 -28 16
-95 2 -30 8 -73 12 -95 4 -22 7 -52 7 -67 1 -14 5 -24 10 -20 5 3 7 -2 3 -10
-3 -9 0 -27 8 -41 14 -27 35 -87 40 -115 2 -9 4 -17 5 -17 1 0 4 -13 6 -30 2
-16 10 -61 16 -100 7 -38 13 -78 14 -87 1 -10 3 -20 4 -23 1 -3 3 -8 4 -12 2
-5 7 -19 13 -33 21 -47 27 -65 28 -90 1 -14 7 -38 14 -53 6 -16 11 -38 11 -50
0 -12 6 -45 14 -74 8 -28 11 -54 8 -57 -3 -3 0 -6 7 -6 7 0 9 -4 6 -10 -3 -5
-2 -10 4 -10 5 0 13 -15 16 -33 4 -17 10 -36 13 -42 8 -13 13 -37 27 -122 2
-18 13 -51 24 -75 19 -43 32 -79 32 -88 1 -3 5 -11 11 -18 6 -7 8 -15 5 -19
-4 -3 -2 -14 3 -23 5 -10 12 -34 14 -55 3 -20 9 -42 15 -49 6 -7 8 -16 4 -19
-3 -4 -1 -7 5 -7 7 0 12 -7 12 -15 0 -8 4 -15 8 -15 8 0 33 -66 38 -100 2 -8
5 -26 9 -40 3 -14 7 -29 9 -35 1 -5 13 -32 26 -60 13 -27 24 -53 25 -57 2 -5
4 -11 5 -15 1 -5 2 -12 1 -17 -1 -5 3 -12 8 -16 6 -3 12 -23 13 -43 2 -20 7
-37 11 -37 5 0 5 -4 2 -10 -3 -5 -1 -10 4 -10 6 0 11 -7 11 -16 0 -9 9 -32 21
-50 11 -19 17 -39 13 -45 -4 -8 -3 -9 4 -5 11 6 17 -12 13 -36 0 -5 3 -8 8 -8
7 0 13 -18 27 -80 1 -8 8 -16 13 -18 6 -2 11 -12 11 -23 0 -10 4 -19 9 -19 9
0 21 -30 26 -65 1 -11 10 -36 18 -56 9 -20 13 -40 9 -44 -4 -5 -2 -5 5 -2 7 5
16 -6 23 -28 6 -19 15 -35 20 -35 9 0 25 -58 21 -77 -1 -7 3 -13 9 -13 5 0 9
-3 8 -7 -4 -13 32 -73 43 -73 6 0 7 -4 4 -10 -3 -5 -2 -10 4 -10 6 0 13 -17
17 -37 7 -39 39 -107 62 -131 7 -8 10 -18 7 -23 -4 -5 -1 -9 4 -9 6 0 11 -5
11 -12 0 -20 53 -128 62 -128 5 0 6 -4 3 -10 -3 -5 -2 -10 3 -10 5 0 13 -10
17 -22 4 -13 8 -25 9 -28 1 -3 6 -20 10 -38 4 -17 12 -32 17 -32 5 0 9 -6 9
-14 0 -7 13 -26 29 -43 15 -16 36 -55 46 -86 10 -32 23 -57 30 -57 9 0 44 -57
50 -80 6 -29 21 -58 35 -70 22 -19 71 -116 63 -124 -4 -3 -1 -6 5 -6 7 0 12
-8 12 -18 0 -10 9 -24 20 -32 11 -8 20 -20 20 -27 0 -7 5 -13 12 -13 6 0 8 -3
5 -7 -4 -3 1 -12 11 -20 9 -8 11 -11 3 -7 -8 4 -3 -8 12 -28 15 -19 24 -38 20
-41 -3 -4 -1 -7 5 -7 6 0 14 -9 17 -21 4 -11 9 -18 12 -15 6 6 45 -63 46 -81
0 -7 4 -13 9 -13 4 0 8 -7 8 -15 0 -8 5 -15 11 -15 5 0 8 -4 5 -9 -3 -5 1 -11
9 -15 8 -3 15 -14 15 -25 0 -10 6 -21 14 -24 8 -3 22 -21 31 -40 9 -19 24 -43
33 -53 9 -11 22 -31 29 -45 6 -15 24 -42 40 -60 42 -49 73 -96 68 -101 -3 -3
10 -20 29 -39 29 -31 60 -75 61 -89 0 -7 48 -73 61 -85 6 -5 21 -26 34 -45 13
-19 31 -43 39 -52 31 -33 41 -47 41 -57 0 -5 15 -24 33 -42 17 -18 25 -30 17
-26 -8 5 -5 0 7 -9 13 -9 23 -22 23 -29 0 -8 4 -15 9 -17 5 -1 11 -10 13 -18
2 -8 15 -27 31 -41 15 -15 27 -30 27 -33 0 -3 10 -16 23 -30 12 -13 34 -38 49
-54 15 -16 24 -32 21 -36 -4 -3 -1 -6 5 -6 7 0 12 -7 12 -16 0 -8 4 -12 10 -9
6 3 10 2 10 -4 0 -6 16 -26 35 -46 20 -19 33 -35 30 -35 -5 0 8 -17 58 -75 15
-18 27 -38 27 -44 0 -6 8 -11 17 -11 9 0 14 -3 10 -6 -3 -4 11 -23 32 -43 21
-20 40 -42 42 -48 8 -24 151 -173 166 -173 8 0 11 -5 8 -10 -3 -6 1 -13 9 -16
9 -3 16 -12 16 -20 0 -8 9 -19 20 -26 11 -7 20 -18 20 -25 0 -7 6 -13 13 -13
7 0 19 -10 27 -22 8 -12 65 -73 126 -135 61 -62 109 -115 106 -118 -3 -3 2 -5
11 -5 9 0 17 -4 17 -9 0 -4 18 -26 41 -47 23 -22 57 -57 77 -78 66 -71 208
-206 216 -206 6 0 24 -18 67 -67 9 -10 44 -43 78 -73 34 -30 82 -74 107 -98
24 -24 44 -41 44 -39 0 2 19 -15 43 -38 24 -23 58 -50 75 -60 18 -11 32 -23
32 -28 0 -4 4 -5 10 -2 6 3 10 1 10 -4 0 -15 51 -71 64 -71 6 0 23 -10 38 -23
61 -51 69 -57 76 -57 4 0 45 -37 92 -81 47 -44 102 -89 123 -100 21 -11 40
-26 44 -34 3 -8 9 -12 14 -9 5 3 12 -2 15 -10 3 -8 27 -29 54 -46 26 -17 60
-41 76 -55 15 -13 31 -22 34 -20 3 2 31 -19 61 -46 29 -27 71 -59 92 -71 20
-12 37 -25 37 -30 0 -4 7 -8 15 -8 9 0 18 -7 21 -15 4 -8 10 -12 15 -9 5 3 9
0 9 -6 0 -6 5 -8 10 -5 6 3 10 1 10 -6 0 -7 3 -10 6 -6 4 3 12 1 20 -6 40 -36
118 -92 148 -107 17 -8 41 -25 54 -37 14 -13 28 -20 33 -17 5 3 9 0 9 -5 0 -6
7 -11 16 -11 19 0 75 -45 67 -54 -4 -3 0 -6 8 -6 8 0 25 -9 39 -20 14 -11 32
-20 40 -20 8 0 27 -11 42 -24 14 -14 29 -22 32 -19 3 4 6 2 6 -4 0 -5 23 -20
50 -33 27 -13 50 -27 50 -32 0 -5 4 -7 8 -4 5 3 21 -8 36 -25 15 -16 32 -27
37 -23 5 3 9 0 9 -5 0 -6 3 -10 8 -9 12 3 82 -30 82 -40 0 -4 34 -25 75 -47
41 -21 83 -46 94 -56 10 -10 22 -15 25 -12 3 4 6 1 6 -6 0 -7 4 -10 9 -6 5 3
16 -1 24 -9 8 -8 16 -13 19 -11 2 2 21 -7 43 -20 36 -22 66 -37 160 -80 17 -8
43 -26 59 -40 16 -14 33 -26 38 -26 12 -2 27 -6 33 -9 3 -1 8 -3 13 -4 4 -1
13 -5 20 -9 6 -5 12 -5 12 0 0 4 4 3 8 -4 4 -6 14 -13 22 -15 8 -2 25 -13 37
-26 13 -13 23 -21 23 -18 0 6 73 -18 110 -36 14 -7 34 -22 45 -34 20 -20 85
-49 85 -37 0 3 7 0 15 -7 8 -7 15 -9 15 -5 0 4 6 2 14 -4 8 -7 24 -14 37 -16
12 -3 25 -8 28 -13 3 -5 38 -21 76 -36 89 -34 135 -57 135 -68 0 -4 4 -8 9 -8
5 0 26 -8 47 -17 22 -9 50 -18 64 -20 13 -3 29 -8 36 -13 6 -5 20 -11 31 -13
12 -1 39 -15 62 -30 22 -15 45 -27 49 -27 23 0 119 -46 141 -67 13 -13 26 -23
30 -24 3 0 13 -2 21 -4 8 -2 40 -8 70 -14 66 -11 104 -25 139 -51 15 -10 61
-25 102 -33 40 -8 88 -20 104 -27 17 -8 32 -14 35 -14 3 -1 18 -10 34 -21 16
-11 34 -20 40 -22 6 -1 22 -4 36 -8 14 -3 41 -8 60 -11 74 -11 96 -17 140 -39
55 -29 100 -42 165 -50 82 -9 108 -16 162 -45 56 -30 80 -37 158 -45 126 -14
192 -29 206 -48 11 -15 94 -31 211 -42 110 -10 134 -16 216 -52 18 -8 43 -16
55 -19 12 -2 33 -6 46 -9 29 -6 103 -13 205 -20 95 -7 155 -18 219 -40 59 -20
122 -28 292 -39 247 -15 292 -19 310 -22 11 -2 47 -6 79 -9 53 -4 121 -15 196
-30 110 -23 283 -29 860 -29 516 -1 756 4 815 17 11 3 40 8 65 12 25 4 54 9
65 12 11 2 31 6 45 7 14 2 48 7 75 10 28 4 77 9 110 11 33 2 87 7 120 9 33 3
107 8 165 11 58 3 122 7 143 10 100 13 124 18 161 30 65 22 125 33 211 40 245
19 253 20 317 50 32 14 69 28 83 31 14 2 36 6 50 8 14 3 56 8 93 11 88 8 159
24 202 45 37 18 119 36 210 45 69 7 150 26 145 35 -7 12 146 55 231 65 26 4
54 11 61 17 7 6 13 8 13 4 0 -3 17 4 38 18 40 25 67 33 147 41 67 8 114 23
150 50 37 27 92 46 152 51 29 2 63 15 94 35 27 17 54 32 61 33 7 2 33 6 58 10
25 4 52 8 60 10 23 4 70 28 70 36 0 10 91 48 135 56 22 4 46 8 53 10 7 1 27
12 45 23 52 34 89 49 137 56 48 7 74 18 102 45 23 21 76 44 141 61 26 6 64 25
84 40 20 16 42 29 50 29 28 0 127 40 136 55 11 21 52 40 115 55 31 7 63 22 75
36 12 13 51 32 86 44 36 11 74 31 88 46 13 14 54 37 91 50 36 14 78 35 92 48
14 14 44 29 66 35 39 10 72 31 119 74 10 9 37 23 60 29 22 7 51 23 65 36 30
28 93 62 115 62 8 0 32 15 52 33 21 19 61 44 88 57 28 13 60 34 73 47 12 12
40 27 61 34 22 6 52 26 68 43 17 17 50 41 75 54 25 12 61 35 79 52 19 16 47
32 62 36 15 3 45 23 65 44 20 21 55 47 77 58 22 11 53 34 69 51 16 16 42 33
58 36 15 4 43 22 61 40 17 19 46 42 63 52 43 25 127 90 182 140 25 24 54 46
65 49 10 3 34 21 54 40 19 19 40 34 47 34 6 0 32 19 58 43 25 23 76 67 113 97
36 30 90 79 120 107 30 29 60 53 67 53 6 0 28 16 47 36 20 20 83 76 141 125
115 99 147 127 171 155 8 11 35 36 60 56 77 64 449 444 449 459 0 4 18 26 40
49 22 23 40 48 40 55 0 7 15 29 33 47 18 19 41 50 50 70 10 20 35 56 57 79 22
24 43 57 46 75 3 18 19 47 35 65 16 18 38 58 49 88 11 31 25 63 30 71 58 86
70 109 70 132 0 27 25 89 59 143 10 17 22 57 26 90 5 33 9 62 9 65 2 8 28 72
49 120 27 58 25 47 43 230 7 76 14 119 24 160 8 33 13 60 26 161 8 56 8 5174
0 5214 -3 17 -10 62 -16 100 -6 39 -13 81 -16 95 -2 14 -7 43 -10 65 -2 22 -7
54 -9 70 -2 17 -7 64 -11 105 -3 41 -10 80 -14 85 -5 6 -9 13 -9 18 0 4 -11
28 -25 55 -25 49 -33 78 -41 150 -5 41 -39 121 -55 132 -5 3 -20 46 -34 95
-14 52 -33 96 -44 105 -10 9 -30 44 -45 80 -14 35 -35 75 -46 89 -12 14 -32
49 -45 77 -13 28 -37 66 -53 85 -16 19 -35 48 -42 65 -7 18 -20 40 -30 50 -9
11 -31 40 -49 66 -18 26 -55 71 -82 99 -28 29 -50 55 -50 59 0 9 -102 114
-122 126 -8 5 -21 19 -30 32 -13 19 -84 85 -173 161 -5 5 -24 24 -41 42 -38
42 -142 117 -195 140 -22 10 -42 26 -46 35 -3 9 -34 29 -67 44 -34 16 -75 41
-93 57 -17 16 -43 29 -58 31 -35 3 -82 28 -115 62 -17 17 -44 31 -67 35 -53 9
-93 25 -129 52 -18 13 -42 26 -55 28 -80 15 -132 31 -189 60 -65 32 -100 40
-220 51 -75 6 -179 31 -197 46 -7 6 -13 8 -13 6 0 -3 -19 -1 -42 3 -24 5 -81
12 -128 15 -116 9 -7252 9 -7365 0 -49 -4 -98 -9 -107 -12 -9 -3 -25 -6 -35
-8 -10 -2 -49 -13 -88 -24 -38 -12 -117 -26 -175 -32 -58 -6 -118 -18 -135
-27 -88 -46 -110 -55 -158 -63 -29 -6 -62 -12 -74 -14 -30 -6 -63 -25 -63 -36
0 -9 -86 -40 -123 -44 -25 -3 -67 -27 -67 -38 0 -9 -86 -53 -120 -61 -14 -4
-36 -16 -49 -28 -13 -12 -49 -34 -80 -49 -31 -15 -70 -42 -88 -59 -18 -17 -47
-37 -66 -45 -19 -7 -48 -28 -66 -45 -17 -17 -36 -31 -42 -31 -5 0 -32 -21 -59
-48 -27 -26 -58 -54 -71 -62 -12 -8 -27 -21 -33 -28 -17 -21 -50 -54 -77 -78
-13 -11 -35 -34 -49 -50 -14 -16 -37 -38 -50 -50 -14 -12 -45 -45 -70 -73 -25
-29 -66 -76 -91 -104 -26 -29 -56 -70 -67 -92 -11 -22 -29 -45 -41 -52 -11 -7
-28 -32 -39 -55 -10 -24 -27 -52 -38 -62 -21 -22 -33 -42 -63 -103 -11 -24
-31 -57 -44 -75 -14 -18 -32 -57 -42 -87 -10 -29 -25 -61 -34 -70 -22 -23 -48
-81 -57 -127 -6 -34 -41 -110 -64 -139 -12 -15 -31 -93 -35 -141 -2 -22 -16
-68 -30 -100 -33 -74 -39 -100 -50 -214 -3 -36 -8 -81 -10 -100 -2 -19 -6 -60
-9 -90 -17 -179 -19 -191 -27 -205 -8 -14 -3 -273 5 -309 4 -17 9 -53 11 -80
3 -48 10 -117 20 -211 2 -23 7 -77 10 -120 7 -90 20 -138 45 -175 20 -30 27
-49 35 -110 12 -89 26 -135 51 -167 34 -44 56 -110 63 -185 1 -4 14 -22 30
-40 16 -19 37 -58 47 -88 9 -30 27 -66 40 -80 13 -14 37 -56 54 -93 17 -37 37
-70 44 -73 8 -3 25 -29 39 -57 13 -29 36 -63 49 -77 13 -14 39 -45 56 -70 17
-25 45 -58 62 -74 16 -16 30 -34 30 -41 0 -6 20 -28 45 -49 25 -22 45 -45 45
-52 0 -7 18 -26 39 -44 22 -17 42 -39 45 -48 3 -10 22 -26 42 -37 19 -10 42
-31 50 -46 7 -15 22 -30 33 -34 11 -3 37 -26 59 -50 22 -25 45 -45 51 -45 6 0
26 -14 44 -31 17 -18 55 -46 82 -64 28 -18 65 -46 83 -63 18 -16 45 -32 60
-35 15 -3 36 -14 47 -24 33 -31 78 -58 117 -71 20 -7 50 -25 66 -40 28 -26 69
-43 132 -56 14 -3 35 -14 47 -25 25 -24 71 -42 166 -66 38 -10 81 -27 95 -40
28 -22 81 -36 209 -55 40 -5 99 -20 130 -32 32 -12 60 -23 63 -23 130 -26 336
-28 2361 -29 1923 -1 1998 -2 2017 -19 13 -12 19 -27 15 -40 -2 -12 -4 -108
-4 -213 0 -167 -2 -194 -17 -208 -9 -8 -35 -33 -57 -54 -22 -22 -58 -45 -78
-53 -21 -7 -46 -20 -55 -29 -43 -39 -92 -71 -117 -76 -15 -3 -39 -16 -53 -29
-15 -14 -35 -25 -44 -25 -10 0 -18 -4 -18 -10 0 -5 -18 -14 -40 -20 -22 -6
-51 -22 -65 -36 -21 -21 -121 -73 -140 -74 -3 0 -9 0 -13 0 -5 0 -22 -11 -38
-25 -15 -13 -42 -27 -59 -31 -16 -3 -34 -10 -40 -14 -5 -4 -22 -10 -37 -14
-14 -3 -40 -17 -56 -31 -33 -28 -84 -51 -126 -59 -34 -6 -119 -38 -126 -47 -4
-5 -42 -21 -60 -24 -60 -11 -123 -32 -151 -50 -42 -27 -109 -51 -165 -59 -66
-10 -82 -14 -103 -26 -12 -6 -21 -8 -21 -4 0 3 -7 0 -17 -7 -9 -8 -19 -13 -22
-13 -3 1 -16 -2 -28 -7 -19 -7 -103 -24 -171 -34 -73 -11 -127 -27 -202 -58
-39 -17 -83 -26 -150 -32 -77 -7 -164 -15 -200 -20 -19 -3 -55 -7 -80 -9 -25
-3 -45 -6 -45 -7 0 -1 -9 -3 -20 -4 -57 -8 -103 -15 -125 -20 -36 -7 -124 -16
-210 -20 -97 -6 -723 -6 -775 -1 -22 2 -76 6 -120 10 -98 8 -132 13 -187 26
-24 6 -72 13 -107 16 -36 3 -67 7 -71 9 -3 2 -42 6 -85 10 -125 9 -189 16
-198 22 -4 3 -23 7 -40 10 -18 3 -38 10 -44 15 -7 6 -13 7 -13 3 0 -5 -8 -1
-18 8 -10 10 -21 14 -25 11 -3 -3 -12 -2 -19 2 -7 5 -17 9 -23 10 -5 1 -52 9
-104 19 -52 9 -103 21 -113 26 -10 5 -18 7 -18 4 0 -3 -14 1 -30 10 -16 9 -30
12 -30 8 0 -5 -4 -2 -8 4 -4 7 -21 14 -38 17 -16 2 -36 6 -44 9 -8 3 -33 8
-55 11 -66 9 -110 25 -149 51 -20 13 -36 22 -36 19 0 -2 -9 0 -20 6 -12 6 -39
13 -62 16 -47 6 -128 41 -135 60 -2 6 -12 11 -21 9 -9 -1 -26 1 -37 5 -11 5
-40 14 -65 21 -25 7 -58 22 -75 33 -46 32 -91 55 -118 60 -28 5 -79 30 -117
56 -14 10 -44 23 -67 29 -23 6 -49 18 -57 26 -8 8 -18 15 -22 15 -4 0 -17 9
-28 20 -22 20 -96 55 -96 45 0 -3 -26 12 -57 33 -32 22 -74 44 -94 51 -20 6
-51 25 -70 42 -19 17 -47 36 -64 43 -16 7 -52 30 -79 51 -27 20 -63 43 -80 50
-17 7 -45 26 -63 42 -45 40 -56 49 -83 63 -14 7 -31 20 -40 28 -8 8 -39 31
-70 50 -30 19 -65 48 -78 63 -13 16 -29 29 -37 29 -7 0 -27 14 -45 30 -18 17
-47 40 -64 52 -17 12 -47 38 -67 57 -20 20 -58 54 -84 76 -27 22 -85 75 -129
117 -45 42 -102 97 -128 122 -27 25 -48 48 -48 50 0 3 -37 44 -82 90 -139 141
-249 263 -263 289 -7 13 -26 37 -42 53 -17 16 -38 45 -48 64 -10 19 -28 44
-40 55 -12 11 -29 32 -37 46 -9 14 -35 47 -57 73 -22 25 -48 63 -58 84 -9 20
-24 42 -33 49 -9 6 -26 31 -38 55 -13 23 -39 66 -60 93 -20 28 -47 71 -59 98
-12 26 -27 47 -33 47 -5 0 -10 7 -10 15 0 8 -5 15 -11 15 -5 0 -8 4 -4 9 3 5
1 12 -5 16 -5 3 -19 27 -31 52 -11 25 -25 51 -30 57 -24 27 -134 233 -137 255
-2 13 -15 41 -28 62 -13 21 -24 43 -24 49 0 5 -4 10 -9 10 -5 0 -17 24 -26 53
-10 28 -21 56 -26 62 -5 5 -9 16 -9 25 0 9 -9 25 -19 34 -11 10 -25 40 -31 67
-7 27 -16 52 -21 55 -5 3 -9 13 -9 22 0 9 -16 48 -35 87 -19 38 -40 93 -45
120 -6 28 -13 61 -16 75 -3 14 -18 52 -34 86 -16 33 -32 78 -34 100 -3 21 -10
54 -15 72 -5 17 -8 32 -5 32 2 0 -2 10 -10 23 -8 12 -15 25 -16 29 -1 12 -11
40 -25 73 -13 28 -24 82 -31 150 -1 17 -6 44 -10 60 -4 17 -7 38 -8 48 0 9 -3
17 -6 17 -3 0 -7 10 -8 23 -3 32 -7 48 -21 80 -6 16 -9 32 -6 37 3 5 1 11 -4
15 -5 3 -10 13 -10 23 -1 19 -6 71 -15 142 -3 25 -8 77 -11 117 -2 40 -7 94
-11 120 -4 26 -8 57 -10 68 -1 11 -3 22 -5 25 -6 14 -20 122 -35 290 -17 182
2 801 25 820 3 3 7 19 7 35 2 47 14 148 19 165 3 8 7 56 10 105 3 50 8 99 12
110 3 11 7 45 9 75 1 30 5 65 8 78 3 12 8 31 10 41 3 11 10 29 16 40 6 12 8
21 4 21 -3 0 -1 6 5 13 6 8 8 17 5 20 -3 3 -2 12 2 19 5 7 9 22 10 33 4 49 17
130 23 135 3 3 7 14 8 25 0 11 4 31 8 45 3 14 7 30 8 35 2 6 6 15 10 22 4 6 8
23 9 37 1 14 6 26 11 26 4 0 5 5 2 10 -3 6 -1 10 6 10 7 0 9 3 6 6 -3 4 -2 14
3 23 5 9 12 44 15 76 4 33 14 76 23 95 8 19 16 39 16 43 1 4 6 11 11 15 6 4
12 14 14 22 2 8 7 31 12 50 5 19 12 51 15 70 3 19 13 46 22 60 34 51 61 108
55 114 -4 3 -1 6 5 6 6 0 9 9 7 20 -2 11 0 20 4 20 4 0 8 6 9 13 2 36 16 76
36 107 12 19 28 51 35 70 26 70 58 129 76 142 6 4 7 8 2 8 -4 0 0 12 10 27 9
14 19 32 20 40 5 21 11 48 13 53 1 3 2 8 1 13 0 4 3 7 8 7 12 0 82 136 74 144
-4 3 0 6 7 6 7 0 11 3 7 6 -3 3 6 17 20 30 14 13 22 24 18 24 -4 0 0 9 10 20
10 11 14 20 10 20 -4 0 -1 8 8 18 10 10 14 22 10 25 -3 4 -1 7 5 7 7 0 12 7
12 14 0 8 11 27 25 42 14 15 25 33 25 40 0 8 5 14 10 14 6 0 10 7 10 15 0 20
59 115 71 115 6 0 7 5 4 10 -3 6 -2 10 3 10 5 0 15 13 21 28 7 15 22 39 35 53
13 14 31 39 39 55 9 16 27 41 40 57 14 15 35 43 48 62 13 19 28 35 32 35 5 0
5 5 2 10 -3 6 1 10 9 10 9 0 16 5 16 10 0 6 9 20 20 32 11 12 20 28 20 35 0 7
5 13 10 13 6 0 10 5 10 10 0 6 19 29 43 52 23 23 36 37 28 33 -8 -5 -2 8 13
28 16 20 31 37 35 37 4 0 15 14 25 32 21 35 35 50 316 333 109 110 226 225
261 255 34 30 80 72 103 92 22 20 43 35 48 32 4 -3 8 0 8 6 0 6 8 14 18 17 19
7 81 57 144 116 22 20 42 37 45 37 7 0 118 84 121 92 2 4 8 8 14 8 6 0 17 8
25 18 9 10 12 11 7 2 -7 -16 -5 -14 55 41 12 11 29 22 36 23 6 1 26 13 43 26
82 65 96 74 88 60 -5 -8 2 -6 15 6 23 20 51 34 65 33 4 0 10 4 13 9 13 21 84
72 92 66 5 -3 9 -1 9 4 0 9 27 20 40 18 3 -1 16 9 30 22 13 12 30 22 37 22 7
0 13 5 13 12 0 6 3 9 6 5 4 -3 23 2 43 12 20 11 40 18 44 17 5 0 13 7 18 17 6
9 17 17 24 17 8 0 15 5 15 11 0 5 5 7 10 4 6 -3 10 -2 10 4 0 8 20 18 50 26
44 12 60 19 60 26 0 5 6 9 14 9 7 0 19 7 26 15 7 8 16 12 21 9 5 -3 12 2 15
11 4 9 12 14 19 11 7 -2 16 -2 20 2 4 4 10 7 14 7 16 0 111 49 111 57 0 4 7 8
15 8 8 0 15 5 15 12 0 6 3 9 6 5 3 -3 30 3 60 13 30 11 54 17 54 14 0 -2 30
11 68 30 37 19 87 38 111 41 23 3 53 10 65 14 11 5 26 9 31 10 6 1 19 11 31
22 11 10 24 16 27 12 4 -3 7 0 7 7 0 7 3 11 6 8 3 -4 20 0 38 7 18 8 55 17 82
21 27 3 79 16 116 29 36 13 69 21 72 17 3 -3 6 1 6 8 0 7 3 11 6 7 3 -3 16 -2
29 3 13 5 43 12 66 16 24 3 53 8 64 10 11 1 31 5 45 8 63 14 96 20 103 18 4
-1 7 2 7 7 0 6 9 8 20 6 11 -2 18 0 16 4 -8 12 101 38 199 47 142 13 220 22
220 24 0 1 11 3 25 5 14 1 45 6 70 10 25 4 64 9 86 10 23 1 46 5 50 7 5 3 28
6 52 6 23 0 43 1 45 2 29 22 920 16 1017 -6 14 -3 45 -7 70 -10 25 -2 52 -7
60 -10 8 -4 35 -6 59 -4 24 1 41 -2 38 -7 -3 -4 7 -9 21 -9 61 -3 210 -14 247
-19 39 -4 62 -9 108 -21 12 -3 29 -7 37 -8 8 -1 30 -10 48 -19 17 -10 32 -15
32 -11 0 4 7 1 15 -6 8 -7 15 -10 15 -6 0 3 12 1 27 -5 15 -6 48 -12 73 -15
25 -3 52 -6 60 -8 76 -15 97 -20 113 -28 10 -5 26 -11 35 -13 9 -2 31 -9 47
-15 17 -7 44 -14 60 -16 33 -4 70 -12 70 -14 0 -1 11 -3 25 -6 26 -4 121 -44
130 -55 5 -6 37 -20 55 -25 6 -1 30 -7 55 -13 61 -16 57 -14 125 -46 61 -29
74 -33 111 -39 29 -4 84 -29 84 -38 0 -5 7 -8 15 -8 8 0 15 -4 15 -8 0 -15 55
-37 108 -44 6 -1 12 -5 12 -10 0 -5 3 -7 8 -5 4 2 21 -4 37 -14 39 -24 97 -53
110 -54 18 -2 89 -43 112 -64 12 -12 26 -21 32 -21 13 0 142 -69 162 -86 8 -8
21 -14 28 -14 14 0 102 -58 113 -74 5 -7 8 -7 8 -1 0 6 3 6 8 -1 4 -6 27 -21
52 -35 25 -13 56 -34 69 -46 13 -12 36 -25 50 -28 14 -4 38 -20 54 -36 15 -17
27 -28 27 -26 0 3 14 -8 31 -24 17 -16 35 -29 41 -29 5 0 23 -13 41 -30 18
-16 48 -37 67 -46 19 -10 47 -29 62 -43 40 -39 56 -51 67 -51 6 0 14 -6 18
-13 8 -12 55 -45 126 -87 21 -12 43 -27 50 -34 19 -18 67 -47 67 -41 0 4 12
-2 28 -12 15 -10 41 -25 57 -33 17 -8 36 -21 43 -27 7 -7 21 -13 30 -13 19 -1
65 -22 132 -62 46 -27 117 -53 166 -62 15 -3 30 -9 33 -14 9 -13 87 -42 129
-47 20 -3 48 -8 62 -11 14 -3 36 -8 49 -10 14 -3 29 -8 35 -11 6 -4 19 -8 31
-9 11 -1 38 -10 60 -20 44 -19 58 -24 95 -29 14 -1 25 -4 25 -5 0 -3 40 -6
175 -15 136 -10 554 -10 650 -1 65 6 157 15 213 19 9 1 17 5 17 9 0 4 3 7 8 6
10 -3 72 12 102 25 14 5 31 12 38 14 6 1 18 5 25 6 6 2 19 7 27 10 8 3 29 8
45 10 79 12 115 22 170 47 33 16 80 33 104 40 24 6 81 32 127 56 46 24 84 42
84 38 0 -4 6 -1 13 5 8 6 17 8 20 4 4 -3 7 -1 7 5 0 7 3 11 8 11 18 -3 31 3
58 26 16 14 35 25 42 25 6 0 12 5 12 12 0 6 3 8 6 5 7 -7 94 40 106 58 4 5 8
7 8 3 0 -5 11 2 24 13 14 12 33 27 44 33 89 53 122 76 159 111 23 22 52 47 64
55 30 20 103 83 107 93 2 4 8 7 13 7 5 0 36 27 70 60 33 33 58 60 54 60 -3 0
7 11 22 25 65 58 74 69 89 101 9 19 19 34 23 34 10 0 38 28 86 85 22 26 45 53
50 59 6 6 17 25 24 43 7 18 22 35 32 38 11 4 17 11 14 16 -4 5 1 9 9 9 9 0 16
6 16 14 0 8 25 51 55 95 30 44 55 86 56 93 0 7 8 25 17 39 32 49 57 84 63 89
5 4 20 54 24 80 0 3 15 30 33 61 18 31 37 79 42 105 15 69 13 64 45 119 16 27
30 54 31 60 1 5 5 24 9 40 3 17 9 46 11 65 3 19 12 62 20 95 8 33 16 66 16 73
1 6 6 12 11 12 6 0 8 3 5 6 -4 3 0 20 7 37 47 113 54 861 10 1112 -4 22 -14
58 -22 80 -19 53 -40 139 -47 195 -9 70 -11 77 -25 94 -7 9 -10 16 -5 16 5 0
2 6 -7 13 -9 7 -17 15 -18 19 -1 4 -8 23 -16 42 -8 20 -15 44 -15 55 0 11 -4
22 -8 25 -4 2 -9 19 -10 38 -1 18 -16 51 -32 74 -15 22 -38 69 -50 105 -11 35
-29 71 -38 79 -21 19 -62 93 -62 112 0 8 -16 31 -35 52 -19 21 -37 47 -41 59
-7 24 -109 166 -147 207 -13 14 -35 44 -48 67 -13 24 -30 43 -36 43 -7 0 -13
4 -13 9 0 5 -22 32 -50 60 -27 28 -50 55 -50 59 -1 15 -37 50 -68 66 -18 9
-32 22 -32 29 0 6 -12 21 -26 32 -14 11 -44 37 -66 58 -22 20 -44 37 -49 37
-5 0 -29 19 -53 41 -24 23 -48 42 -52 42 -5 0 -28 18 -51 40 -24 22 -60 51
-80 65 -21 15 -60 43 -88 64 -27 21 -54 38 -58 38 -5 0 -25 16 -45 35 -20 19
-41 35 -46 35 -4 0 -21 10 -36 23 -15 12 -37 29 -50 37 -12 8 -28 21 -36 28
-7 7 -16 13 -19 12 -3 0 -8 0 -12 0 -5 0 -30 20 -57 45 -44 41 -53 47 -72 44
-4 0 -10 3 -13 8 -12 18 -111 83 -134 88 -14 4 -41 22 -60 40 -20 19 -57 44
-82 55 -26 12 -60 34 -77 51 -17 16 -34 29 -37 30 -52 6 -56 8 -141 74 -25 19
-51 35 -58 35 -7 0 -32 13 -55 29 -23 15 -70 43 -103 60 -34 17 -70 41 -79 51
-10 11 -26 20 -35 20 -9 0 -20 3 -24 7 -3 4 -12 8 -19 9 -7 1 -42 21 -80 45
-37 23 -75 44 -85 45 -24 4 -102 47 -102 57 0 4 -4 5 -10 2 -5 -3 -10 -2 -10
3 0 11 -45 32 -71 32 -23 0 -53 16 -89 48 -14 12 -43 27 -65 33 -55 14 -125
51 -118 63 4 5 1 6 -7 1 -7 -4 -16 -2 -21 6 -4 8 -12 14 -16 15 -4 0 -16 4
-25 8 -9 4 -22 8 -30 10 -18 3 -110 47 -128 63 -9 6 -31 15 -49 18 -19 3 -43
11 -55 18 -11 6 -24 11 -28 12 -4 0 -16 8 -27 17 -24 21 -61 41 -61 33 0 -3
-8 -1 -18 4 -11 6 -32 13 -48 16 -47 10 -48 10 -61 18 -7 5 -13 5 -13 0 0 -4
-5 -1 -10 7 -5 8 -13 15 -17 15 -4 1 -22 8 -39 18 -17 9 -34 13 -38 10 -3 -4
-6 -1 -6 6 0 7 -6 11 -12 8 -20 -6 -149 41 -164 60 -7 10 -14 14 -14 8 0 -5
-4 -4 -9 3 -8 13 -48 25 -121 38 -19 3 -41 11 -47 16 -7 6 -13 8 -13 5 0 -4
-20 4 -46 18 -25 13 -57 26 -72 29 -26 5 -50 10 -89 21 -33 8 -105 36 -134 51
-16 8 -31 15 -34 15 -2 0 -19 5 -37 10 -18 5 -46 12 -63 14 -30 6 -87 21 -115
32 -8 4 -18 5 -22 5 -5 -1 -8 3 -8 9 0 6 -6 9 -14 6 -7 -3 -17 -2 -22 3 -5 5
-23 11 -41 13 -17 3 -35 7 -40 10 -4 3 -26 8 -48 11 -90 14 -101 17 -130 28
-16 6 -38 18 -47 26 -10 8 -18 12 -18 7 0 -4 -7 -2 -15 5 -9 7 -18 10 -21 8
-3 -3 -22 -2 -42 3 -20 5 -57 11 -82 15 -77 10 -140 23 -154 32 -6 3 -20 8
-30 9 -11 2 -25 8 -33 14 -7 6 -13 9 -13 6 0 -3 -15 -1 -32 4 -31 8 -60 13
-148 23 -82 9 -122 18 -185 41 -19 7 -45 13 -72 17 -7 1 -13 4 -13 7 0 4 -12
8 -27 10 -44 4 -68 8 -68 11 0 1 -31 3 -70 5 -38 2 -90 7 -115 10 -25 3 -67 8
-94 10 -27 3 -59 8 -70 12 -12 3 -32 8 -46 9 -42 5 -94 13 -120 19 -14 3 -52
8 -85 11 -33 2 -78 6 -100 8 -45 5 -164 13 -300 22 -123 8 -162 11 -220 18
-50 7 -75 9 -260 21 -55 4 -118 9 -140 11 -52 5 -656 10 -660 5z"/>
</g>
</svg>
